<svg height="30pt" fill="#fec657" viewBox="0 0 512 511" width="30pt" xmlns="http://www.w3.org/2000/svg"><path d="m10 512.492188h40c5.523438 0 10-4.476563 10-10v-10h30c5.523438 0 10-4.476563 10-10v-7.460938l59.320312 4.941406c5.539063.460938 10.339844-3.664062 10.796876-9.136718.457031-5.5-3.632813-10.335938-9.136719-10.792969l-60.980469-5.082031v-103.3125c13.476562-2.253907 25.9375-9.011719 35.1875-19.308594 8.226562-9.15625 19.164062-15.640625 30.789062-18.261719 22.46875-5.058594 44.664063 2.199219 59.359376 19.417969 10.460937 12.25 24.140624 18.996094 38.515624 18.996094h36.148438c11.027344 0 20 8.972656 20 20 0 11.023437-8.914062 20-20 20h-90c-5.523438 0-10 4.476562-10 10 0 5.523437 4.476562 10 10 10h90c14.953125 0 28.457031-8.257813 35.339844-21.285157l113.203125-66.472656c10.175781-5.96875 23.257812-2.40625 28.992187 7.910156 5.300782 9.542969 2.503906 21.386719-6.503906 27.542969l-163.746094 112.042969-66.578125-5.546875c-5.476562-.453125-10.335937 3.628906-10.796875 9.136718-.457031 5.503907 3.632813 10.335938 9.136719 10.792969 0 0 70.675781 5.878907 70.953125 5.878907 2.007812 0 3.980469-.605469 5.648438-1.746094l166.675781-114.050782c17.578125-12.019531 23.035156-35.128906 12.695312-53.761718-11.199219-20.148438-36.730469-27.109375-56.605469-15.445313l-99.015624 58.140625c-3.265626-18.796875-19.683594-33.136718-39.398438-33.136718h-36.152344c-8.425781 0-16.703125-4.257813-23.300781-11.984376-19.597656-22.960937-49.117187-32.660156-78.96875-25.941406-15.636719 3.527344-30.289063 12.191406-41.269531 24.402344-5.445313 6.0625-12.546875 10.289062-20.3125 12.257812v-8.738281c0-5.519531-4.476563-10-10-10h-29.996094v-10c0-5.519531-4.476562-10-10-10h-40c-5.523438 0-10 4.480469-10 10v200c0 5.527344 4.476562 10.003907 10 10.003907zm70-180v140h-20v-140zm-60-20h20v180h-20zm0 0"/><path d="m278.824219 200.429688c7.878906 5.523437 13.175781 13.9375 13.175781 23.402343v16.660157h-10c-5.523438 0-10 4.476562-10 10 0 5.523437 4.476562 10 10 10h10v30c0 5.523437 4.476562 10 10 10h80c5.523438 0 10-4.476563 10-10v-30h10c5.523438 0 10-4.476563 10-10 0-5.523438-4.476562-10-10-10h-10v-15.371094c0-9.949219 5.304688-19.085938 13.792969-25.136719 28.933593-20.621094 46.207031-54.074219 46.207031-89.492187 0-69.386719-63.511719-122.179688-133.605469-107.539063-43.171875 9.019531-77.21875 44.433594-84.71875 88.125-7.34375 42.730469 9.957031 84.628906 45.148438 109.351563zm93.175781 80.0625h-60v-20h60zm-60-40v-16.671876c0-1.117187-.054688-2.230468-.136719-3.339843h60.363281c-.148437 1.535156-.226562 3.078125-.226562 4.632812v15.378907zm-58.613281-146.027344c6.125-35.671875 33.894531-64.578125 69.097656-71.933594 57.617187-12.039062 109.515625 31.230469 109.515625 87.960938 0 28.964843-14.136719 56.332031-37.8125 73.207031-6.414062 4.570312-11.660156 10.296875-15.445312 16.792969h-26.742188v-60h30c16.542969 0 30-13.457032 30-30 0-16.542969-13.457031-30-30-30s-30 13.457031-30 30c0 3.503906.609375 6.871093 1.71875 10h-23.4375c1.109375-3.128907 1.71875-6.496094 1.71875-10 0-16.542969-13.457031-30-30-30s-30 13.457031-30 30c0 16.542968 13.457031 30 30 30h30v60h-26.410156c-3.710938-6.359376-8.902344-11.964844-15.273438-16.433594-28.796875-20.230469-42.949218-54.558594-36.929687-89.59375zm118.613281 16.027344c0-5.515626 4.484375-10 10-10s10 4.484374 10 10c0 5.515624-4.484375 10-10 10s-10-4.484376-10-10zm-80 0c0-5.515626 4.484375-10 10-10s10 4.484374 10 10c0 5.515624-4.484375 10-10 10s-10-4.484376-10-10zm0 0"/><path d="m502 100.492188h-20c-5.523438 0-10 4.476562-10 10 0 5.523437 4.476562 10 10 10h20c5.523438 0 10-4.476563 10-10 0-5.523438-4.476562-10-10-10zm0 0"/><path d="m182 120.492188h20c5.523438 0 10-4.476563 10-10 0-5.523438-4.476562-10-10-10h-20c-5.523438 0-10 4.476562-10 10 0 5.523437 4.476562 10 10 10zm0 0"/><path d="m187.527344 69.4375 20 10c4.941406 2.46875 10.949218.464844 13.417968-4.472656 2.46875-4.941406.464844-10.949219-4.472656-13.417969l-20-10c-4.941406-2.46875-10.949218-.46875-13.417968 4.472656-2.46875 4.941407-.464844 10.945313 4.472656 13.417969zm0 0"/><path d="m207.527344 141.546875-20 10c-4.9375 2.46875-6.941406 8.476563-4.472656 13.417969 2.472656 4.949218 8.488281 6.9375 13.417968 4.472656l20-10c4.9375-2.472656 6.941406-8.476562 4.472656-13.417969-2.46875-4.941406-8.480468-6.941406-13.417968-4.472656zm0 0"/><path d="m476.472656 79.4375 20-10c4.9375-2.472656 6.941406-8.476562 4.472656-13.417969-2.46875-4.941406-8.480468-6.945312-13.417968-4.472656l-20 10c-4.9375 2.46875-6.941406 8.476563-4.472656 13.417969 2.476562 4.949218 8.488281 6.9375 13.417968 4.472656zm0 0"/><path d="m467.527344 159.4375 20 10c4.941406 2.46875 10.949218.464844 13.417968-4.472656 2.46875-4.941406.464844-10.949219-4.472656-13.417969l-20-10c-4.941406-2.46875-10.949218-.46875-13.417968 4.472656-2.46875 4.941407-.464844 10.945313 4.472656 13.417969zm0 0"/><path d="m210 473.492188c0-5.519532-4.480469-10-10-10s-10 4.480468-10 10c0 5.519531 4.480469 10 10 10s10-4.480469 10-10zm0 0"/></svg>